<svg width="800" height="1000" viewBox="0 0 800 1000" fill="none" xmlns="http://www.w3.org/2000/svg" role="img" aria-labelledby="avatarTitle avatarDesc">
  <title id="avatarTitle">Illustrated portrait of Timothy Odebunmi</title>
  <desc id="avatarDesc">A restrained portrait illustration in warm neutral and forest green tones.</desc>
  <rect width="800" height="1000" fill="#E9E3D7"/>
  <path d="M0 820L800 610V1000H0V820Z" fill="#D8D1C4"/>
  <path d="M58 106H255" stroke="#245B46" stroke-width="3"/>
  <path d="M545 894H742" stroke="#B97824" stroke-width="3"/>
  <text x="58" y="86" fill="#245B46" font-family="IBM Plex Mono, monospace" font-size="18" letter-spacing="4">TIMOTHY ODEBUNMI</text>
  <circle cx="400" cy="385" r="190" fill="#F5F2EA" stroke="#BDB5A5" stroke-width="2"/>
  <path d="M228 910C238 730 294 635 400 635C506 635 562 730 572 910H228Z" fill="#245B46"/>
  <path d="M324 640C339 600 364 576 400 576C436 576 461 600 476 640C462 684 435 706 400 706C365 706 338 684 324 640Z" fill="#9A6545"/>
  <path d="M282 420C286 518 330 587 400 587C470 587 514 518 518 420C522 336 482 278 400 278C318 278 278 336 282 420Z" fill="#A96F4C"/>
  <path d="M274 392C276 294 326 238 400 238C474 238 524 294 526 392C493 337 452 309 400 309C348 309 307 337 274 392Z" fill="#17211B"/>
  <path d="M280 426C262 414 250 429 258 455C263 473 273 484 289 488" fill="#A96F4C"/>
  <path d="M520 426C538 414 550 429 542 455C537 473 527 484 511 488" fill="#A96F4C"/>
  <ellipse cx="348" cy="421" rx="10" ry="7" fill="#17211B"/>
  <ellipse cx="452" cy="421" rx="10" ry="7" fill="#17211B"/>
  <path d="M359 497C381 512 419 512 441 497" stroke="#73452F" stroke-width="6" stroke-linecap="round"/>
  <path d="M318 384C336 373 354 371 374 378" stroke="#17211B" stroke-width="7" stroke-linecap="round"/>
  <path d="M426 378C446 371 464 373 482 384" stroke="#17211B" stroke-width="7" stroke-linecap="round"/>
  <path d="M400 431L388 470H414" stroke="#875539" stroke-width="5" stroke-linecap="round" stroke-linejoin="round"/>
  <path d="M286 752C314 720 352 704 400 704C448 704 486 720 514 752" stroke="#F5F2EA" stroke-opacity=".36" stroke-width="2"/>
  <text x="58" y="945" fill="#626A64" font-family="IBM Plex Mono, monospace" font-size="16" letter-spacing="2">ENGINEER / CYBERSECURITY STUDENT</text>
</svg>
