<svg width="1200" height="800" viewBox="0 0 1200 800" fill="none" xmlns="http://www.w3.org/2000/svg" role="img" aria-labelledby="p2Title p2Desc">
  <title id="p2Title">Secure autopilot chat mockup</title>
  <desc id="p2Desc">A command console with encrypted chat bubbles, security badges, and flight telemetry.</desc>
  <defs>
    <linearGradient id="p2bg" x1="120" y1="80" x2="1080" y2="700" gradientUnits="userSpaceOnUse">
      <stop stop-color="#0D1D31"/>
      <stop offset="1" stop-color="#07111D"/>
    </linearGradient>
    <linearGradient id="p2accent" x1="0" y1="0" x2="1" y2="1">
      <stop stop-color="#31D0C7"/>
      <stop offset="1" stop-color="#8CC4FF"/>
    </linearGradient>
  </defs>
  <rect width="1200" height="800" rx="40" fill="url(#p2bg)"/>
  <rect x="56" y="56" width="1088" height="688" rx="30" fill="rgba(255,255,255,0.04)" stroke="#93A9C5" stroke-opacity=".18"/>
  <rect x="90" y="90" width="1020" height="76" rx="20" fill="#0E1D31" stroke="#93A9C5" stroke-opacity=".16"/>
  <text x="132" y="138" fill="#EDF4FF" font-family="Plus Jakarta Sans, Arial, sans-serif" font-size="26" font-weight="700">Secure Autopilot Chat</text>
  <rect x="90" y="194" width="292" height="132" rx="24" fill="#10243B" stroke="#93A9C5" stroke-opacity=".14"/>
  <rect x="406" y="194" width="292" height="132" rx="24" fill="#10243B" stroke="#93A9C5" stroke-opacity=".14"/>
  <rect x="722" y="194" width="388" height="132" rx="24" fill="#10243B" stroke="#93A9C5" stroke-opacity=".14"/>
  <text x="130" y="246" fill="#A7B9D4" font-family="Plus Jakarta Sans, Arial, sans-serif" font-size="20">Encrypted messages</text>
  <text x="130" y="292" fill="#EDF4FF" font-family="Plus Jakarta Sans, Arial, sans-serif" font-size="44" font-weight="800">On</text>
  <text x="445" y="246" fill="#A7B9D4" font-family="Plus Jakarta Sans, Arial, sans-serif" font-size="20">Latency reduction</text>
  <text x="445" y="292" fill="#EDF4FF" font-family="Plus Jakarta Sans, Arial, sans-serif" font-size="44" font-weight="800">40%</text>
  <text x="760" y="246" fill="#A7B9D4" font-family="Plus Jakarta Sans, Arial, sans-serif" font-size="20">Command health</text>
  <text x="760" y="292" fill="#EDF4FF" font-family="Plus Jakarta Sans, Arial, sans-serif" font-size="44" font-weight="800">Stable</text>
  <rect x="90" y="358" width="682" height="318" rx="28" fill="#0F1F33" stroke="#93A9C5" stroke-opacity=".14"/>
  <text x="126" y="402" fill="#EDF4FF" font-family="Plus Jakarta Sans, Arial, sans-serif" font-size="24" font-weight="700">Operator chat</text>
  <rect x="126" y="440" width="354" height="72" rx="22" fill="#31D0C7" fill-opacity=".14" stroke="#31D0C7" stroke-opacity=".35"/>
  <text x="154" y="484" fill="#EDF4FF" font-family="Plus Jakarta Sans, Arial, sans-serif" font-size="20">Run safe check before takeoff.</text>
  <rect x="372" y="524" width="354" height="72" rx="22" fill="#8CC4FF" fill-opacity=".14" stroke="#8CC4FF" stroke-opacity=".35"/>
  <text x="400" y="568" fill="#EDF4FF" font-family="Plus Jakarta Sans, Arial, sans-serif" font-size="20">Acknowledged. Secure channel ready.</text>
  <rect x="126" y="610" width="600" height="40" rx="14" fill="#10243B" stroke="#93A9C5" stroke-opacity=".16"/>
  <text x="150" y="637" fill="#A7B9D4" font-family="Plus Jakarta Sans, Arial, sans-serif" font-size="16">Type a command ...</text>
  <rect x="816" y="358" width="298" height="318" rx="28" fill="#0F1F33" stroke="#93A9C5" stroke-opacity=".14"/>
  <text x="852" y="402" fill="#EDF4FF" font-family="Plus Jakarta Sans, Arial, sans-serif" font-size="24" font-weight="700">Security status</text>
  <circle cx="872" cy="452" r="18" fill="#31D0C7"/>
  <text x="904" y="458" fill="#A7B9D4" font-family="Plus Jakarta Sans, Arial, sans-serif" font-size="18">Encrypted link</text>
  <circle cx="872" cy="512" r="18" fill="#F0C766"/>
  <text x="904" y="518" fill="#A7B9D4" font-family="Plus Jakarta Sans, Arial, sans-serif" font-size="18">SDK forked</text>
  <circle cx="872" cy="572" r="18" fill="#8CC4FF"/>
  <text x="904" y="578" fill="#A7B9D4" font-family="Plus Jakarta Sans, Arial, sans-serif" font-size="18">Latency reduced</text>
  <path d="M960 620C1000 620 1024 596 1024 564C1024 540 1006 520 982 512C978 482 954 458 924 458C886 458 856 488 856 526C832 532 816 554 816 580C816 608 838 630 866 630H960Z" fill="url(#p2accent)" fill-opacity=".16" stroke="url(#p2accent)" stroke-opacity=".5"/>
  <path d="M922 490C934 478 948 472 964 472C988 472 1006 490 1006 514C1006 532 994 548 978 554C976 572 962 586 944 586C922 586 904 568 904 546C892 542 882 530 882 516C882 500 896 488 912 488" stroke="#EDF4FF" stroke-opacity=".7" stroke-width="4" stroke-linecap="round"/>
</svg>

